<?xml version="1.0" standalone="no"?><svg xmlns="http://www.w3.org/2000/svg" viewBox="0 0 1440 320"><path fill="#00ff99" fill-opacity="0.4" d="M0,320L30,320C60,320,120,320,180,293.3C240,267,300,213,360,165.3C420,117,480,75,540,64C600,53,660,75,720,74.7C780,75,840,53,900,64C960,75,1020,117,1080,122.7C1140,128,1200,96,1260,112C1320,128,1380,192,1410,224L1440,256L1440,320L1410,320C1380,320,1320,320,1260,320C1200,320,1140,320,1080,320C1020,320,960,320,900,320C840,320,780,320,720,320C660,320,600,320,540,320C480,320,420,320,360,320C300,320,240,320,180,320C120,320,60,320,30,320L0,320Z"></path></svg>