<?xml version="1.0" standalone="no"?><svg xmlns="http://www.w3.org/2000/svg" viewBox="0 0 1440 320"><path fill="#00ff99" fill-opacity="0.7" d="M0,288L34.3,293.3C68.6,299,137,309,206,304C274.3,299,343,277,411,272C480,267,549,277,617,282.7C685.7,288,754,288,823,288C891.4,288,960,288,1029,293.3C1097.1,299,1166,309,1234,298.7C1302.9,288,1371,256,1406,240L1440,224L1440,320L1405.7,320C1371.4,320,1303,320,1234,320C1165.7,320,1097,320,1029,320C960,320,891,320,823,320C754.3,320,686,320,617,320C548.6,320,480,320,411,320C342.9,320,274,320,206,320C137.1,320,69,320,34,320L0,320Z"></path></svg>